<svg xmlns="http://www.w3.org/2000/svg" viewBox="0 0 800 600" width="800" height="600">
  <!-- Background -->
  <rect width="800" height="600" fill="#040806"/>

  <!-- Lines connecting nodes (opacity 0.15) -->
  <line x1="72" y1="88" x2="178" y2="142" stroke="#34d399" stroke-width="1" opacity="0.15"/>
  <line x1="178" y1="142" x2="310" y2="95" stroke="#34d399" stroke-width="1" opacity="0.15"/>
  <line x1="178" y1="142" x2="245" y2="268" stroke="#34d399" stroke-width="1" opacity="0.15"/>
  <line x1="310" y1="95" x2="452" y2="118" stroke="#34d399" stroke-width="1" opacity="0.15"/>
  <line x1="452" y1="118" x2="560" y2="72" stroke="#34d399" stroke-width="1" opacity="0.15"/>
  <line x1="452" y1="118" x2="530" y2="210" stroke="#34d399" stroke-width="1" opacity="0.15"/>
  <line x1="560" y1="72" x2="680" y2="130" stroke="#34d399" stroke-width="1" opacity="0.15"/>
  <line x1="680" y1="130" x2="742" y2="245" stroke="#34d399" stroke-width="1" opacity="0.15"/>
  <line x1="530" y1="210" x2="680" y2="130" stroke="#34d399" stroke-width="1" opacity="0.15"/>
  <line x1="530" y1="210" x2="620" y2="320" stroke="#34d399" stroke-width="1" opacity="0.15"/>
  <line x1="245" y1="268" x2="390" y2="310" stroke="#34d399" stroke-width="1" opacity="0.15"/>
  <line x1="390" y1="310" x2="530" y2="210" stroke="#34d399" stroke-width="1" opacity="0.15"/>
  <line x1="390" y1="310" x2="460" y2="420" stroke="#34d399" stroke-width="1" opacity="0.15"/>
  <line x1="100" y1="350" x2="245" y2="268" stroke="#34d399" stroke-width="1" opacity="0.15"/>
  <line x1="100" y1="350" x2="195" y2="460" stroke="#34d399" stroke-width="1" opacity="0.15"/>
  <line x1="742" y1="245" x2="720" y2="390" stroke="#34d399" stroke-width="1" opacity="0.15"/>
  <line x1="720" y1="390" x2="620" y2="320" stroke="#34d399" stroke-width="1" opacity="0.15"/>
  <line x1="620" y1="320" x2="460" y2="420" stroke="#34d399" stroke-width="1" opacity="0.15"/>
  <line x1="460" y1="420" x2="340" y2="500" stroke="#34d399" stroke-width="1" opacity="0.15"/>
  <line x1="340" y1="500" x2="195" y2="460" stroke="#34d399" stroke-width="1" opacity="0.15"/>
  <line x1="340" y1="500" x2="480" y2="558" stroke="#34d399" stroke-width="1" opacity="0.15"/>
  <line x1="480" y1="558" x2="620" y2="520" stroke="#34d399" stroke-width="1" opacity="0.15"/>
  <line x1="620" y1="520" x2="720" y2="390" stroke="#34d399" stroke-width="1" opacity="0.15"/>
  <line x1="72" y1="88" x2="100" y2="350" stroke="#34d399" stroke-width="1" opacity="0.15"/>
  <line x1="195" y1="460" x2="38" y2="490" stroke="#34d399" stroke-width="1" opacity="0.15"/>

  <!-- Nodes (r=3, opacity=0.5) -->
  <circle cx="72" cy="88" r="3" fill="#34d399" opacity="0.5"/>
  <circle cx="178" cy="142" r="3" fill="#34d399" opacity="0.5"/>
  <circle cx="310" cy="95" r="3" fill="#34d399" opacity="0.5"/>
  <circle cx="452" cy="118" r="3" fill="#34d399" opacity="0.5"/>
  <circle cx="560" cy="72" r="3" fill="#34d399" opacity="0.5"/>
  <circle cx="680" cy="130" r="3" fill="#34d399" opacity="0.5"/>
  <circle cx="742" cy="245" r="3" fill="#34d399" opacity="0.5"/>
  <circle cx="530" cy="210" r="3" fill="#34d399" opacity="0.5"/>
  <circle cx="245" cy="268" r="3" fill="#34d399" opacity="0.5"/>
  <circle cx="390" cy="310" r="3" fill="#34d399" opacity="0.5"/>
  <circle cx="620" cy="320" r="3" fill="#34d399" opacity="0.5"/>
  <circle cx="100" cy="350" r="3" fill="#34d399" opacity="0.5"/>
  <circle cx="720" cy="390" r="3" fill="#34d399" opacity="0.5"/>
  <circle cx="460" cy="420" r="3" fill="#34d399" opacity="0.5"/>
  <circle cx="195" cy="460" r="3" fill="#34d399" opacity="0.5"/>
  <circle cx="340" cy="500" r="3" fill="#34d399" opacity="0.5"/>
  <circle cx="480" cy="558" r="3" fill="#34d399" opacity="0.5"/>
  <circle cx="620" cy="520" r="3" fill="#34d399" opacity="0.5"/>
  <circle cx="38" cy="490" r="3" fill="#34d399" opacity="0.5"/>
  <circle cx="760" cy="540" r="3" fill="#34d399" opacity="0.5"/>
</svg>
